# xmcd
#
# Track frame offsets: 
#        150
#        12653
#        25502
#        38021
#        50120
#        60199
#        72486
#        83146
#        93470
#        104506
#        116003
#        127315
#        138864
#        149300
#        160838
#        173887
#        186247
#        196282
#        206116
#        216348
#        228643
#        243990
#        255336
#        265225
#        275070
#        284683
#        295525
#        308013
#        317881
#        329982
#
# Disc length: 4556 seconds
#
# Revision: 1
# Processed by: cddbd v1.5.2PL0 Copyright (c) Steve Scherf et al.
# Submitted via: ExactAudioCopyFreeDBPlugin 1.0
#
DISCID=d711ca1e
DTITLE=Various Artist - We're Gonna Rock, We're Gonna Roll
DYEAR=2005
DGENRE=Rock
TTITLE0=Hank Williams - Move It on Over
TTITLE1=Hank Snow - I'm Movin' On
TTITLE2=Hardrock Gunter - Birmingham Bounce
TTITLE3=Red Foley - Tennessee Saturday Night
TTITLE4=Johnny Horton - Tennessee Jive
TTITLE5=Curtis Gordon - Rompin' and Stompin'
TTITLE6=Charlie Adams - T.T. Boogie
TTITLE7=Chuck Murphy - Blue Ribbon Boogie
TTITLE8=Jack Guthrie - Oakie Boogie
TTITLE9=Cowboy Jim - Juke Joint Mama
TTITLE10=Arkie Shibley - Hot Rod Race
TTITLE11=Jimmie Dolan - Hot Rod Mama
TTITLE12=The Carlisles - Too Old to Cut the Mustard
TTITLE13=Wayne Raney - I Ain't Nothin' But a Tom Cat's Kitten
TTITLE14=Johnnie Lee Wills - The Band's A-Rockin'
TTITLE15=Porky Freeman Trio - Slick Chick Boogie
TTITLE16=Bill Monroe - White House Blues
TTITLE17=Lattie Moore - Juke Joint Johnny
TTITLE18=Maddox Brothers and Rose - Sally Let Your Bangs Hang Down
TTITLE19=Hank Garland and His Sugar Footers - Sugarfoot Rag
TTITLE20=Rambler - Guitar Boogie
TTITLE21=Chet Atkins - The Nashville Jump
TTITLE22=Jimmy Bryant - Stratosphere Boogie
TTITLE23=Terry Fell - Don't Drop It
TTITLE24=Moon Mullican - Good Deal Lucille
TTITLE25=Bud Hobbs - Louisiana Swing
TTITLE26=Merle Travis - Louisiana Boogie
TTITLE27=Lee Bonds - Wild Cattin' Woman
TTITLE28=Betsy Gay - Hound Dog
TTITLE29=Brother Claude Ely - There's a Leak in This Old Building
EXTD=
EXTT0=
EXTT1=
EXTT2=
EXTT3=
EXTT4=
EXTT5=
EXTT6=
EXTT7=
EXTT8=
EXTT9=
EXTT10=
EXTT11=
EXTT12=
EXTT13=
EXTT14=
EXTT15=
EXTT16=
EXTT17=
EXTT18=
EXTT19=
EXTT20=
EXTT21=
EXTT22=
EXTT23=
EXTT24=
EXTT25=
EXTT26=
EXTT27=
EXTT28=
EXTT29=
PLAYORDER=
